G04 #@! TF.FileFunction,Legend,Top*
%FSLAX46Y46*%
G04 Gerber Fmt 4.6, Leading zero omitted, Abs format (unit mm)*
G04 Created by KiCad (PCBNEW 4.0.1-4.201602120846+6195~38~ubuntu15.10.1-stable) date Mon 15 Feb 2016 03:11:55 PM IST*
%MOMM*%
G01*
G04 APERTURE LIST*
%ADD10C,0.100000*%
%ADD11C,0.150000*%
%ADD12C,0.203200*%
%ADD13C,0.304800*%
%ADD14C,0.101600*%
%ADD15C,0.449580*%
%ADD16C,0.127000*%
%ADD17C,0.152400*%
%ADD18C,0.330200*%
%ADD19C,0.050800*%
G04 APERTURE END LIST*
D10*
D11*
X139390381Y-120999285D02*
X139390381Y-121570714D01*
X139390381Y-121285000D02*
X138390381Y-121285000D01*
X138533238Y-121380238D01*
X138628476Y-121475476D01*
X138676095Y-121570714D01*
X140208000Y-125095000D02*
X157988000Y-125095000D01*
X157988000Y-125095000D02*
X157988000Y-122555000D01*
X157988000Y-122555000D02*
X140208000Y-122555000D01*
X137388000Y-125375000D02*
X138938000Y-125375000D01*
X140208000Y-125095000D02*
X140208000Y-122555000D01*
X138938000Y-122275000D02*
X137388000Y-122275000D01*
X137388000Y-122275000D02*
X137388000Y-125375000D01*
X163068000Y-125095000D02*
X175768000Y-125095000D01*
X175768000Y-125095000D02*
X175768000Y-122555000D01*
X175768000Y-122555000D02*
X163068000Y-122555000D01*
X160248000Y-125375000D02*
X161798000Y-125375000D01*
X163068000Y-125095000D02*
X163068000Y-122555000D01*
X161798000Y-122275000D02*
X160248000Y-122275000D01*
X160248000Y-122275000D02*
X160248000Y-125375000D01*
X131064000Y-76835000D02*
X153924000Y-76835000D01*
X153924000Y-76835000D02*
X153924000Y-74295000D01*
X153924000Y-74295000D02*
X131064000Y-74295000D01*
X128244000Y-77115000D02*
X129794000Y-77115000D01*
X131064000Y-76835000D02*
X131064000Y-74295000D01*
X129794000Y-74015000D02*
X128244000Y-74015000D01*
X128244000Y-74015000D02*
X128244000Y-77115000D01*
X157988000Y-76835000D02*
X175768000Y-76835000D01*
X175768000Y-76835000D02*
X175768000Y-74295000D01*
X175768000Y-74295000D02*
X157988000Y-74295000D01*
X155168000Y-77115000D02*
X156718000Y-77115000D01*
X157988000Y-76835000D02*
X157988000Y-74295000D01*
X156718000Y-74015000D02*
X155168000Y-74015000D01*
X155168000Y-74015000D02*
X155168000Y-77115000D01*
X127254000Y-123825000D02*
G75*
G03X127254000Y-123825000I-2286000J0D01*
G01*
X179324000Y-118745000D02*
G75*
G03X179324000Y-118745000I-2286000J0D01*
G01*
X128524000Y-75565000D02*
G75*
G03X128524000Y-75565000I-2286000J0D01*
G01*
X179324000Y-90805000D02*
G75*
G03X179324000Y-90805000I-2286000J0D01*
G01*
D12*
X165679120Y-92684600D02*
X168076880Y-92684600D01*
X168076880Y-92684600D02*
X168076880Y-86385400D01*
X168076880Y-86385400D02*
X165679120Y-86385400D01*
X165679120Y-86385400D02*
X165679120Y-92684600D01*
X126309120Y-92684600D02*
X128706880Y-92684600D01*
X128706880Y-92684600D02*
X128706880Y-86385400D01*
X128706880Y-86385400D02*
X126309120Y-86385400D01*
X126309120Y-86385400D02*
X126309120Y-92684600D01*
X173156880Y-82575400D02*
X170759120Y-82575400D01*
X170759120Y-82575400D02*
X170759120Y-88874600D01*
X170759120Y-88874600D02*
X173156880Y-88874600D01*
X173156880Y-88874600D02*
X173156880Y-82575400D01*
X126309120Y-111734600D02*
X128706880Y-111734600D01*
X128706880Y-111734600D02*
X128706880Y-105435400D01*
X128706880Y-105435400D02*
X126309120Y-105435400D01*
X126309120Y-105435400D02*
X126309120Y-111734600D01*
X165679120Y-111734600D02*
X168076880Y-111734600D01*
X168076880Y-111734600D02*
X168076880Y-105435400D01*
X168076880Y-105435400D02*
X165679120Y-105435400D01*
X165679120Y-105435400D02*
X165679120Y-111734600D01*
X123626880Y-86385400D02*
X121229120Y-86385400D01*
X121229120Y-86385400D02*
X121229120Y-92684600D01*
X121229120Y-92684600D02*
X123626880Y-92684600D01*
X123626880Y-92684600D02*
X123626880Y-86385400D01*
X121229120Y-111734600D02*
X123626880Y-111734600D01*
X123626880Y-111734600D02*
X123626880Y-105435400D01*
X123626880Y-105435400D02*
X121229120Y-105435400D01*
X121229120Y-105435400D02*
X121229120Y-111734600D01*
X134518400Y-117546120D02*
X134518400Y-119943880D01*
X134518400Y-119943880D02*
X140817600Y-119943880D01*
X140817600Y-119943880D02*
X140817600Y-117546120D01*
X140817600Y-117546120D02*
X134518400Y-117546120D01*
X150718520Y-112582960D02*
X150718520Y-113433860D01*
X151869140Y-114584480D02*
X161566860Y-114584480D01*
X162717480Y-113433860D02*
X162717480Y-112582960D01*
X162717480Y-109583220D02*
X162717480Y-107586780D01*
X162717480Y-104587040D02*
X162717480Y-103736140D01*
X161566860Y-102585520D02*
X151869140Y-102585520D01*
X150718520Y-103736140D02*
X150718520Y-104587040D01*
X150718520Y-107586780D02*
X150718520Y-109583220D01*
X161566860Y-114584480D02*
X162717480Y-113433860D01*
X150718520Y-113433860D02*
X151869140Y-114584480D01*
X151869140Y-102585520D02*
X150718520Y-103736140D01*
X162717480Y-103736140D02*
X161566860Y-102585520D01*
X162717480Y-109583220D02*
X161716720Y-109583220D01*
X161716720Y-109583220D02*
X161716720Y-112582960D01*
X161716720Y-112582960D02*
X162717480Y-112582960D01*
X162717480Y-107586780D02*
X161716720Y-107586780D01*
X161716720Y-107586780D02*
X161716720Y-104587040D01*
X161716720Y-104587040D02*
X162717480Y-104587040D01*
D13*
X157353000Y-109220000D02*
X156718000Y-109220000D01*
X156718000Y-109220000D02*
X156083000Y-109220000D01*
X156083000Y-109220000D02*
X156718000Y-107950000D01*
X156718000Y-107950000D02*
X157353000Y-109220000D01*
X157353000Y-107950000D02*
X156718000Y-107950000D01*
X156718000Y-107950000D02*
X156083000Y-107950000D01*
D14*
X159189366Y-108585000D02*
G75*
G03X159189366Y-108585000I-2471366J0D01*
G01*
D15*
X153000224Y-112582960D02*
G75*
G03X153000224Y-112582960I-280184J0D01*
G01*
X160996144Y-112582960D02*
G75*
G03X160996144Y-112582960I-280184J0D01*
G01*
X160996144Y-104587040D02*
G75*
G03X160996144Y-104587040I-280184J0D01*
G01*
X153000224Y-104587040D02*
G75*
G03X153000224Y-104587040I-280184J0D01*
G01*
D12*
X131668520Y-93532960D02*
X131668520Y-94383860D01*
X132819140Y-95534480D02*
X142516860Y-95534480D01*
X143667480Y-94383860D02*
X143667480Y-93532960D01*
X143667480Y-90533220D02*
X143667480Y-88536780D01*
X143667480Y-85537040D02*
X143667480Y-84686140D01*
X142516860Y-83535520D02*
X132819140Y-83535520D01*
X131668520Y-84686140D02*
X131668520Y-85537040D01*
X131668520Y-88536780D02*
X131668520Y-90533220D01*
X142516860Y-95534480D02*
X143667480Y-94383860D01*
X131668520Y-94383860D02*
X132819140Y-95534480D01*
X132819140Y-83535520D02*
X131668520Y-84686140D01*
X143667480Y-84686140D02*
X142516860Y-83535520D01*
X143667480Y-90533220D02*
X142666720Y-90533220D01*
X142666720Y-90533220D02*
X142666720Y-93532960D01*
X142666720Y-93532960D02*
X143667480Y-93532960D01*
X143667480Y-88536780D02*
X142666720Y-88536780D01*
X142666720Y-88536780D02*
X142666720Y-85537040D01*
X142666720Y-85537040D02*
X143667480Y-85537040D01*
D13*
X138303000Y-90170000D02*
X137668000Y-90170000D01*
X137668000Y-90170000D02*
X137033000Y-90170000D01*
X137033000Y-90170000D02*
X137668000Y-88900000D01*
X137668000Y-88900000D02*
X138303000Y-90170000D01*
X138303000Y-88900000D02*
X137668000Y-88900000D01*
X137668000Y-88900000D02*
X137033000Y-88900000D01*
D14*
X140139366Y-89535000D02*
G75*
G03X140139366Y-89535000I-2471366J0D01*
G01*
D15*
X133950224Y-93532960D02*
G75*
G03X133950224Y-93532960I-280184J0D01*
G01*
X141946144Y-93532960D02*
G75*
G03X141946144Y-93532960I-280184J0D01*
G01*
X141946144Y-85537040D02*
G75*
G03X141946144Y-85537040I-280184J0D01*
G01*
X133950224Y-85537040D02*
G75*
G03X133950224Y-85537040I-280184J0D01*
G01*
D12*
X150718520Y-93532960D02*
X150718520Y-94383860D01*
X151869140Y-95534480D02*
X161566860Y-95534480D01*
X162717480Y-94383860D02*
X162717480Y-93532960D01*
X162717480Y-90533220D02*
X162717480Y-88536780D01*
X162717480Y-85537040D02*
X162717480Y-84686140D01*
X161566860Y-83535520D02*
X151869140Y-83535520D01*
X150718520Y-84686140D02*
X150718520Y-85537040D01*
X150718520Y-88536780D02*
X150718520Y-90533220D01*
X161566860Y-95534480D02*
X162717480Y-94383860D01*
X150718520Y-94383860D02*
X151869140Y-95534480D01*
X151869140Y-83535520D02*
X150718520Y-84686140D01*
X162717480Y-84686140D02*
X161566860Y-83535520D01*
X162717480Y-90533220D02*
X161716720Y-90533220D01*
X161716720Y-90533220D02*
X161716720Y-93532960D01*
X161716720Y-93532960D02*
X162717480Y-93532960D01*
X162717480Y-88536780D02*
X161716720Y-88536780D01*
X161716720Y-88536780D02*
X161716720Y-85537040D01*
X161716720Y-85537040D02*
X162717480Y-85537040D01*
D13*
X157353000Y-90170000D02*
X156718000Y-90170000D01*
X156718000Y-90170000D02*
X156083000Y-90170000D01*
X156083000Y-90170000D02*
X156718000Y-88900000D01*
X156718000Y-88900000D02*
X157353000Y-90170000D01*
X157353000Y-88900000D02*
X156718000Y-88900000D01*
X156718000Y-88900000D02*
X156083000Y-88900000D01*
D14*
X159189366Y-89535000D02*
G75*
G03X159189366Y-89535000I-2471366J0D01*
G01*
D15*
X153000224Y-93532960D02*
G75*
G03X153000224Y-93532960I-280184J0D01*
G01*
X160996144Y-93532960D02*
G75*
G03X160996144Y-93532960I-280184J0D01*
G01*
X160996144Y-85537040D02*
G75*
G03X160996144Y-85537040I-280184J0D01*
G01*
X153000224Y-85537040D02*
G75*
G03X153000224Y-85537040I-280184J0D01*
G01*
D12*
X131668520Y-112582960D02*
X131668520Y-113433860D01*
X132819140Y-114584480D02*
X142516860Y-114584480D01*
X143667480Y-113433860D02*
X143667480Y-112582960D01*
X143667480Y-109583220D02*
X143667480Y-107586780D01*
X143667480Y-104587040D02*
X143667480Y-103736140D01*
X142516860Y-102585520D02*
X132819140Y-102585520D01*
X131668520Y-103736140D02*
X131668520Y-104587040D01*
X131668520Y-107586780D02*
X131668520Y-109583220D01*
X142516860Y-114584480D02*
X143667480Y-113433860D01*
X131668520Y-113433860D02*
X132819140Y-114584480D01*
X132819140Y-102585520D02*
X131668520Y-103736140D01*
X143667480Y-103736140D02*
X142516860Y-102585520D01*
X143667480Y-109583220D02*
X142666720Y-109583220D01*
X142666720Y-109583220D02*
X142666720Y-112582960D01*
X142666720Y-112582960D02*
X143667480Y-112582960D01*
X143667480Y-107586780D02*
X142666720Y-107586780D01*
X142666720Y-107586780D02*
X142666720Y-104587040D01*
X142666720Y-104587040D02*
X143667480Y-104587040D01*
D13*
X138303000Y-109220000D02*
X137668000Y-109220000D01*
X137668000Y-109220000D02*
X137033000Y-109220000D01*
X137033000Y-109220000D02*
X137668000Y-107950000D01*
X137668000Y-107950000D02*
X138303000Y-109220000D01*
X138303000Y-107950000D02*
X137668000Y-107950000D01*
X137668000Y-107950000D02*
X137033000Y-107950000D01*
D14*
X140139366Y-108585000D02*
G75*
G03X140139366Y-108585000I-2471366J0D01*
G01*
D15*
X133950224Y-112582960D02*
G75*
G03X133950224Y-112582960I-280184J0D01*
G01*
X141946144Y-112582960D02*
G75*
G03X141946144Y-112582960I-280184J0D01*
G01*
X141946144Y-104587040D02*
G75*
G03X141946144Y-104587040I-280184J0D01*
G01*
X133950224Y-104587040D02*
G75*
G03X133950224Y-104587040I-280184J0D01*
G01*
D11*
X147089905Y-121737381D02*
X147089905Y-120737381D01*
X147470858Y-120737381D01*
X147566096Y-120785000D01*
X147613715Y-120832619D01*
X147661334Y-120927857D01*
X147661334Y-121070714D01*
X147613715Y-121165952D01*
X147566096Y-121213571D01*
X147470858Y-121261190D01*
X147089905Y-121261190D01*
X148613715Y-121737381D02*
X148042286Y-121737381D01*
X148328000Y-121737381D02*
X148328000Y-120737381D01*
X148232762Y-120880238D01*
X148137524Y-120975476D01*
X148042286Y-121023095D01*
X167663905Y-121737381D02*
X167663905Y-120737381D01*
X168044858Y-120737381D01*
X168140096Y-120785000D01*
X168187715Y-120832619D01*
X168235334Y-120927857D01*
X168235334Y-121070714D01*
X168187715Y-121165952D01*
X168140096Y-121213571D01*
X168044858Y-121261190D01*
X167663905Y-121261190D01*
X168616286Y-120832619D02*
X168663905Y-120785000D01*
X168759143Y-120737381D01*
X168997239Y-120737381D01*
X169092477Y-120785000D01*
X169140096Y-120832619D01*
X169187715Y-120927857D01*
X169187715Y-121023095D01*
X169140096Y-121165952D01*
X168568667Y-121737381D01*
X169187715Y-121737381D01*
X140485905Y-78811381D02*
X140485905Y-77811381D01*
X140866858Y-77811381D01*
X140962096Y-77859000D01*
X141009715Y-77906619D01*
X141057334Y-78001857D01*
X141057334Y-78144714D01*
X141009715Y-78239952D01*
X140962096Y-78287571D01*
X140866858Y-78335190D01*
X140485905Y-78335190D01*
X141390667Y-77811381D02*
X142009715Y-77811381D01*
X141676381Y-78192333D01*
X141819239Y-78192333D01*
X141914477Y-78239952D01*
X141962096Y-78287571D01*
X142009715Y-78382810D01*
X142009715Y-78620905D01*
X141962096Y-78716143D01*
X141914477Y-78763762D01*
X141819239Y-78811381D01*
X141533524Y-78811381D01*
X141438286Y-78763762D01*
X141390667Y-78716143D01*
X164869905Y-78811381D02*
X164869905Y-77811381D01*
X165250858Y-77811381D01*
X165346096Y-77859000D01*
X165393715Y-77906619D01*
X165441334Y-78001857D01*
X165441334Y-78144714D01*
X165393715Y-78239952D01*
X165346096Y-78287571D01*
X165250858Y-78335190D01*
X164869905Y-78335190D01*
X166298477Y-78144714D02*
X166298477Y-78811381D01*
X166060381Y-77763762D02*
X165822286Y-78478048D01*
X166441334Y-78478048D01*
D16*
X169785695Y-92210466D02*
X169398648Y-92481399D01*
X169785695Y-92674923D02*
X168972895Y-92674923D01*
X168972895Y-92365285D01*
X169011600Y-92287876D01*
X169050305Y-92249171D01*
X169127714Y-92210466D01*
X169243829Y-92210466D01*
X169321238Y-92249171D01*
X169359943Y-92287876D01*
X169398648Y-92365285D01*
X169398648Y-92674923D01*
X169785695Y-91436371D02*
X169785695Y-91900828D01*
X169785695Y-91668599D02*
X168972895Y-91668599D01*
X169089010Y-91746009D01*
X169166419Y-91823418D01*
X169205124Y-91900828D01*
X166729229Y-90137342D02*
X167271095Y-90137342D01*
X166419590Y-90330866D02*
X167000162Y-90524390D01*
X167000162Y-90021228D01*
X167193686Y-89711590D02*
X167232390Y-89672885D01*
X167271095Y-89711590D01*
X167232390Y-89750295D01*
X167193686Y-89711590D01*
X167271095Y-89711590D01*
X166458295Y-89401952D02*
X166458295Y-88860085D01*
X167271095Y-89208428D01*
X167271095Y-88550447D02*
X166458295Y-88550447D01*
X166961457Y-88473038D02*
X167271095Y-88240809D01*
X166729229Y-88240809D02*
X167038867Y-88550447D01*
X130415695Y-89670466D02*
X130028648Y-89941399D01*
X130415695Y-90134923D02*
X129602895Y-90134923D01*
X129602895Y-89825285D01*
X129641600Y-89747876D01*
X129680305Y-89709171D01*
X129757714Y-89670466D01*
X129873829Y-89670466D01*
X129951238Y-89709171D01*
X129989943Y-89747876D01*
X130028648Y-89825285D01*
X130028648Y-90134923D01*
X129680305Y-89360828D02*
X129641600Y-89322123D01*
X129602895Y-89244714D01*
X129602895Y-89051190D01*
X129641600Y-88973780D01*
X129680305Y-88935076D01*
X129757714Y-88896371D01*
X129835124Y-88896371D01*
X129951238Y-88935076D01*
X130415695Y-89399533D01*
X130415695Y-88896371D01*
X127088295Y-90427628D02*
X127088295Y-89924466D01*
X127397933Y-90195399D01*
X127397933Y-90079285D01*
X127436638Y-90001875D01*
X127475343Y-89963171D01*
X127552752Y-89924466D01*
X127746276Y-89924466D01*
X127823686Y-89963171D01*
X127862390Y-90001875D01*
X127901095Y-90079285D01*
X127901095Y-90311513D01*
X127862390Y-90388923D01*
X127823686Y-90427628D01*
X127088295Y-89653533D02*
X127088295Y-89150371D01*
X127397933Y-89421304D01*
X127397933Y-89305190D01*
X127436638Y-89227780D01*
X127475343Y-89189076D01*
X127552752Y-89150371D01*
X127746276Y-89150371D01*
X127823686Y-89189076D01*
X127862390Y-89227780D01*
X127901095Y-89305190D01*
X127901095Y-89537418D01*
X127862390Y-89614828D01*
X127823686Y-89653533D01*
X127088295Y-88647209D02*
X127088295Y-88569800D01*
X127127000Y-88492390D01*
X127165705Y-88453685D01*
X127243114Y-88414981D01*
X127397933Y-88376276D01*
X127591457Y-88376276D01*
X127746276Y-88414981D01*
X127823686Y-88453685D01*
X127862390Y-88492390D01*
X127901095Y-88569800D01*
X127901095Y-88647209D01*
X127862390Y-88724619D01*
X127823686Y-88763323D01*
X127746276Y-88802028D01*
X127591457Y-88840733D01*
X127397933Y-88840733D01*
X127243114Y-88802028D01*
X127165705Y-88763323D01*
X127127000Y-88724619D01*
X127088295Y-88647209D01*
X174865695Y-88400466D02*
X174478648Y-88671399D01*
X174865695Y-88864923D02*
X174052895Y-88864923D01*
X174052895Y-88555285D01*
X174091600Y-88477876D01*
X174130305Y-88439171D01*
X174207714Y-88400466D01*
X174323829Y-88400466D01*
X174401238Y-88439171D01*
X174439943Y-88477876D01*
X174478648Y-88555285D01*
X174478648Y-88864923D01*
X174052895Y-88129533D02*
X174052895Y-87626371D01*
X174362533Y-87897304D01*
X174362533Y-87781190D01*
X174401238Y-87703780D01*
X174439943Y-87665076D01*
X174517352Y-87626371D01*
X174710876Y-87626371D01*
X174788286Y-87665076D01*
X174826990Y-87703780D01*
X174865695Y-87781190D01*
X174865695Y-88013418D01*
X174826990Y-88090828D01*
X174788286Y-88129533D01*
X172300295Y-86419266D02*
X172300295Y-86883723D01*
X172300295Y-86651494D02*
X171487495Y-86651494D01*
X171603610Y-86728904D01*
X171681019Y-86806313D01*
X171719724Y-86883723D01*
X172300295Y-85645171D02*
X172300295Y-86109628D01*
X172300295Y-85877399D02*
X171487495Y-85877399D01*
X171603610Y-85954809D01*
X171681019Y-86032218D01*
X171719724Y-86109628D01*
X171487495Y-85142009D02*
X171487495Y-85064600D01*
X171526200Y-84987190D01*
X171564905Y-84948485D01*
X171642314Y-84909781D01*
X171797133Y-84871076D01*
X171990657Y-84871076D01*
X172145476Y-84909781D01*
X172222886Y-84948485D01*
X172261590Y-84987190D01*
X172300295Y-85064600D01*
X172300295Y-85142009D01*
X172261590Y-85219419D01*
X172222886Y-85258123D01*
X172145476Y-85296828D01*
X171990657Y-85335533D01*
X171797133Y-85335533D01*
X171642314Y-85296828D01*
X171564905Y-85258123D01*
X171526200Y-85219419D01*
X171487495Y-85142009D01*
X130415695Y-108720466D02*
X130028648Y-108991399D01*
X130415695Y-109184923D02*
X129602895Y-109184923D01*
X129602895Y-108875285D01*
X129641600Y-108797876D01*
X129680305Y-108759171D01*
X129757714Y-108720466D01*
X129873829Y-108720466D01*
X129951238Y-108759171D01*
X129989943Y-108797876D01*
X130028648Y-108875285D01*
X130028648Y-109184923D01*
X129873829Y-108023780D02*
X130415695Y-108023780D01*
X129564190Y-108217304D02*
X130144762Y-108410828D01*
X130144762Y-107907666D01*
X127901095Y-108974466D02*
X127901095Y-109438923D01*
X127901095Y-109206694D02*
X127088295Y-109206694D01*
X127204410Y-109284104D01*
X127281819Y-109361513D01*
X127320524Y-109438923D01*
X127901095Y-108200371D02*
X127901095Y-108664828D01*
X127901095Y-108432599D02*
X127088295Y-108432599D01*
X127204410Y-108510009D01*
X127281819Y-108587418D01*
X127320524Y-108664828D01*
X127088295Y-107697209D02*
X127088295Y-107619800D01*
X127127000Y-107542390D01*
X127165705Y-107503685D01*
X127243114Y-107464981D01*
X127397933Y-107426276D01*
X127591457Y-107426276D01*
X127746276Y-107464981D01*
X127823686Y-107503685D01*
X127862390Y-107542390D01*
X127901095Y-107619800D01*
X127901095Y-107697209D01*
X127862390Y-107774619D01*
X127823686Y-107813323D01*
X127746276Y-107852028D01*
X127591457Y-107890733D01*
X127397933Y-107890733D01*
X127243114Y-107852028D01*
X127165705Y-107813323D01*
X127127000Y-107774619D01*
X127088295Y-107697209D01*
X169557095Y-109863466D02*
X169170048Y-110134399D01*
X169557095Y-110327923D02*
X168744295Y-110327923D01*
X168744295Y-110018285D01*
X168783000Y-109940876D01*
X168821705Y-109902171D01*
X168899114Y-109863466D01*
X169015229Y-109863466D01*
X169092638Y-109902171D01*
X169131343Y-109940876D01*
X169170048Y-110018285D01*
X169170048Y-110327923D01*
X168744295Y-109128076D02*
X168744295Y-109515123D01*
X169131343Y-109553828D01*
X169092638Y-109515123D01*
X169053933Y-109437714D01*
X169053933Y-109244190D01*
X169092638Y-109166780D01*
X169131343Y-109128076D01*
X169208752Y-109089371D01*
X169402276Y-109089371D01*
X169479686Y-109128076D01*
X169518390Y-109166780D01*
X169557095Y-109244190D01*
X169557095Y-109437714D01*
X169518390Y-109515123D01*
X169479686Y-109553828D01*
X167271095Y-108916409D02*
X167271095Y-109380866D01*
X167271095Y-109148637D02*
X166458295Y-109148637D01*
X166574410Y-109226047D01*
X166651819Y-109303456D01*
X166690524Y-109380866D01*
X166458295Y-108413247D02*
X166458295Y-108335838D01*
X166497000Y-108258428D01*
X166535705Y-108219723D01*
X166613114Y-108181019D01*
X166767933Y-108142314D01*
X166961457Y-108142314D01*
X167116276Y-108181019D01*
X167193686Y-108219723D01*
X167232390Y-108258428D01*
X167271095Y-108335838D01*
X167271095Y-108413247D01*
X167232390Y-108490657D01*
X167193686Y-108529361D01*
X167116276Y-108568066D01*
X166961457Y-108606771D01*
X166767933Y-108606771D01*
X166613114Y-108568066D01*
X166535705Y-108529361D01*
X166497000Y-108490657D01*
X166458295Y-108413247D01*
X167271095Y-107793971D02*
X166458295Y-107793971D01*
X166961457Y-107716562D02*
X167271095Y-107484333D01*
X166729229Y-107484333D02*
X167038867Y-107793971D01*
X125335695Y-92210466D02*
X124948648Y-92481399D01*
X125335695Y-92674923D02*
X124522895Y-92674923D01*
X124522895Y-92365285D01*
X124561600Y-92287876D01*
X124600305Y-92249171D01*
X124677714Y-92210466D01*
X124793829Y-92210466D01*
X124871238Y-92249171D01*
X124909943Y-92287876D01*
X124948648Y-92365285D01*
X124948648Y-92674923D01*
X124522895Y-91513780D02*
X124522895Y-91668599D01*
X124561600Y-91746009D01*
X124600305Y-91784714D01*
X124716419Y-91862123D01*
X124871238Y-91900828D01*
X125180876Y-91900828D01*
X125258286Y-91862123D01*
X125296990Y-91823418D01*
X125335695Y-91746009D01*
X125335695Y-91591190D01*
X125296990Y-91513780D01*
X125258286Y-91475076D01*
X125180876Y-91436371D01*
X124987352Y-91436371D01*
X124909943Y-91475076D01*
X124871238Y-91513780D01*
X124832533Y-91591190D01*
X124832533Y-91746009D01*
X124871238Y-91823418D01*
X124909943Y-91862123D01*
X124987352Y-91900828D01*
X122770295Y-90171209D02*
X122770295Y-90635666D01*
X122770295Y-90403437D02*
X121957495Y-90403437D01*
X122073610Y-90480847D01*
X122151019Y-90558256D01*
X122189724Y-90635666D01*
X121957495Y-89668047D02*
X121957495Y-89590638D01*
X121996200Y-89513228D01*
X122034905Y-89474523D01*
X122112314Y-89435819D01*
X122267133Y-89397114D01*
X122460657Y-89397114D01*
X122615476Y-89435819D01*
X122692886Y-89474523D01*
X122731590Y-89513228D01*
X122770295Y-89590638D01*
X122770295Y-89668047D01*
X122731590Y-89745457D01*
X122692886Y-89784161D01*
X122615476Y-89822866D01*
X122460657Y-89861571D01*
X122267133Y-89861571D01*
X122112314Y-89822866D01*
X122034905Y-89784161D01*
X121996200Y-89745457D01*
X121957495Y-89668047D01*
X122770295Y-89048771D02*
X121957495Y-89048771D01*
X122460657Y-88971362D02*
X122770295Y-88739133D01*
X122228429Y-88739133D02*
X122538067Y-89048771D01*
X125335695Y-111260466D02*
X124948648Y-111531399D01*
X125335695Y-111724923D02*
X124522895Y-111724923D01*
X124522895Y-111415285D01*
X124561600Y-111337876D01*
X124600305Y-111299171D01*
X124677714Y-111260466D01*
X124793829Y-111260466D01*
X124871238Y-111299171D01*
X124909943Y-111337876D01*
X124948648Y-111415285D01*
X124948648Y-111724923D01*
X124522895Y-110989533D02*
X124522895Y-110447666D01*
X125335695Y-110796009D01*
X122821095Y-108916409D02*
X122821095Y-109380866D01*
X122821095Y-109148637D02*
X122008295Y-109148637D01*
X122124410Y-109226047D01*
X122201819Y-109303456D01*
X122240524Y-109380866D01*
X122008295Y-108413247D02*
X122008295Y-108335838D01*
X122047000Y-108258428D01*
X122085705Y-108219723D01*
X122163114Y-108181019D01*
X122317933Y-108142314D01*
X122511457Y-108142314D01*
X122666276Y-108181019D01*
X122743686Y-108219723D01*
X122782390Y-108258428D01*
X122821095Y-108335838D01*
X122821095Y-108413247D01*
X122782390Y-108490657D01*
X122743686Y-108529361D01*
X122666276Y-108568066D01*
X122511457Y-108606771D01*
X122317933Y-108606771D01*
X122163114Y-108568066D01*
X122085705Y-108529361D01*
X122047000Y-108490657D01*
X122008295Y-108413247D01*
X122821095Y-107793971D02*
X122008295Y-107793971D01*
X122511457Y-107716562D02*
X122821095Y-107484333D01*
X122279229Y-107484333D02*
X122588867Y-107793971D01*
X136389534Y-121424095D02*
X136118601Y-121037048D01*
X135925077Y-121424095D02*
X135925077Y-120611295D01*
X136234715Y-120611295D01*
X136312124Y-120650000D01*
X136350829Y-120688705D01*
X136389534Y-120766114D01*
X136389534Y-120882229D01*
X136350829Y-120959638D01*
X136312124Y-120998343D01*
X136234715Y-121037048D01*
X135925077Y-121037048D01*
X136853991Y-120959638D02*
X136776582Y-120920933D01*
X136737877Y-120882229D01*
X136699172Y-120804819D01*
X136699172Y-120766114D01*
X136737877Y-120688705D01*
X136776582Y-120650000D01*
X136853991Y-120611295D01*
X137008810Y-120611295D01*
X137086220Y-120650000D01*
X137124924Y-120688705D01*
X137163629Y-120766114D01*
X137163629Y-120804819D01*
X137124924Y-120882229D01*
X137086220Y-120920933D01*
X137008810Y-120959638D01*
X136853991Y-120959638D01*
X136776582Y-120998343D01*
X136737877Y-121037048D01*
X136699172Y-121114457D01*
X136699172Y-121269276D01*
X136737877Y-121346686D01*
X136776582Y-121385390D01*
X136853991Y-121424095D01*
X137008810Y-121424095D01*
X137086220Y-121385390D01*
X137124924Y-121346686D01*
X137163629Y-121269276D01*
X137163629Y-121114457D01*
X137124924Y-121037048D01*
X137086220Y-120998343D01*
X137008810Y-120959638D01*
X137336591Y-119138095D02*
X136872134Y-119138095D01*
X137104363Y-119138095D02*
X137104363Y-118325295D01*
X137026953Y-118441410D01*
X136949544Y-118518819D01*
X136872134Y-118557524D01*
X137839753Y-118325295D02*
X137917162Y-118325295D01*
X137994572Y-118364000D01*
X138033277Y-118402705D01*
X138071981Y-118480114D01*
X138110686Y-118634933D01*
X138110686Y-118828457D01*
X138071981Y-118983276D01*
X138033277Y-119060686D01*
X137994572Y-119099390D01*
X137917162Y-119138095D01*
X137839753Y-119138095D01*
X137762343Y-119099390D01*
X137723639Y-119060686D01*
X137684934Y-118983276D01*
X137646229Y-118828457D01*
X137646229Y-118634933D01*
X137684934Y-118480114D01*
X137723639Y-118402705D01*
X137762343Y-118364000D01*
X137839753Y-118325295D01*
X138459029Y-119138095D02*
X138459029Y-118325295D01*
X138536438Y-118828457D02*
X138768667Y-119138095D01*
X138768667Y-118596229D02*
X138459029Y-118905867D01*
D11*
X155556857Y-114281857D02*
X155774571Y-114354429D01*
X156137428Y-114354429D01*
X156282571Y-114281857D01*
X156355142Y-114209286D01*
X156427714Y-114064143D01*
X156427714Y-113919000D01*
X156355142Y-113773857D01*
X156282571Y-113701286D01*
X156137428Y-113628714D01*
X155847142Y-113556143D01*
X155702000Y-113483571D01*
X155629428Y-113411000D01*
X155556857Y-113265857D01*
X155556857Y-113120714D01*
X155629428Y-112975571D01*
X155702000Y-112903000D01*
X155847142Y-112830429D01*
X156210000Y-112830429D01*
X156427714Y-112903000D01*
X157879143Y-114354429D02*
X157008286Y-114354429D01*
X157443714Y-114354429D02*
X157443714Y-112830429D01*
X157298571Y-113048143D01*
X157153429Y-113193286D01*
X157008286Y-113265857D01*
X154649714Y-105464429D02*
X154649714Y-103940429D01*
X154649714Y-104521000D02*
X154794857Y-104448429D01*
X155085143Y-104448429D01*
X155230286Y-104521000D01*
X155302857Y-104593571D01*
X155375428Y-104738714D01*
X155375428Y-105174143D01*
X155302857Y-105319286D01*
X155230286Y-105391857D01*
X155085143Y-105464429D01*
X154794857Y-105464429D01*
X154649714Y-105391857D01*
X156246285Y-105464429D02*
X156101143Y-105391857D01*
X156028571Y-105246714D01*
X156028571Y-103940429D01*
X157480000Y-104448429D02*
X157480000Y-105464429D01*
X156826857Y-104448429D02*
X156826857Y-105246714D01*
X156899429Y-105391857D01*
X157044571Y-105464429D01*
X157262286Y-105464429D01*
X157407429Y-105391857D01*
X157480000Y-105319286D01*
X158786286Y-105391857D02*
X158641143Y-105464429D01*
X158350857Y-105464429D01*
X158205714Y-105391857D01*
X158133143Y-105246714D01*
X158133143Y-104666143D01*
X158205714Y-104521000D01*
X158350857Y-104448429D01*
X158641143Y-104448429D01*
X158786286Y-104521000D01*
X158858857Y-104666143D01*
X158858857Y-104811286D01*
X158133143Y-104956429D01*
D17*
X152089274Y-105536879D02*
X152718226Y-105536879D01*
X152379560Y-105923927D01*
X152524702Y-105923927D01*
X152621464Y-105972308D01*
X152669845Y-106020689D01*
X152718226Y-106117450D01*
X152718226Y-106359355D01*
X152669845Y-106456117D01*
X152621464Y-106504498D01*
X152524702Y-106552879D01*
X152234417Y-106552879D01*
X152137655Y-106504498D01*
X152089274Y-106456117D01*
X161417484Y-105875546D02*
X161417484Y-106552879D01*
X161175580Y-105488498D02*
X160933675Y-106214212D01*
X161562627Y-106214212D01*
D18*
X156051915Y-111153847D02*
X157714285Y-111153847D01*
X156883100Y-111985032D02*
X156883100Y-110322662D01*
X156001115Y-106353247D02*
X157663485Y-106353247D01*
D11*
X136506857Y-95231857D02*
X136724571Y-95304429D01*
X137087428Y-95304429D01*
X137232571Y-95231857D01*
X137305142Y-95159286D01*
X137377714Y-95014143D01*
X137377714Y-94869000D01*
X137305142Y-94723857D01*
X137232571Y-94651286D01*
X137087428Y-94578714D01*
X136797142Y-94506143D01*
X136652000Y-94433571D01*
X136579428Y-94361000D01*
X136506857Y-94215857D01*
X136506857Y-94070714D01*
X136579428Y-93925571D01*
X136652000Y-93853000D01*
X136797142Y-93780429D01*
X137160000Y-93780429D01*
X137377714Y-93853000D01*
X137958286Y-93925571D02*
X138030857Y-93853000D01*
X138176000Y-93780429D01*
X138538857Y-93780429D01*
X138684000Y-93853000D01*
X138756571Y-93925571D01*
X138829143Y-94070714D01*
X138829143Y-94215857D01*
X138756571Y-94433571D01*
X137885714Y-95304429D01*
X138829143Y-95304429D01*
X135527143Y-85398429D02*
X135527143Y-86632143D01*
X135454572Y-86777286D01*
X135382000Y-86849857D01*
X135236857Y-86922429D01*
X135019143Y-86922429D01*
X134874000Y-86849857D01*
X135527143Y-86341857D02*
X135382000Y-86414429D01*
X135091714Y-86414429D01*
X134946572Y-86341857D01*
X134874000Y-86269286D01*
X134801429Y-86124143D01*
X134801429Y-85688714D01*
X134874000Y-85543571D01*
X134946572Y-85471000D01*
X135091714Y-85398429D01*
X135382000Y-85398429D01*
X135527143Y-85471000D01*
X136252857Y-86414429D02*
X136252857Y-85398429D01*
X136252857Y-85688714D02*
X136325429Y-85543571D01*
X136398000Y-85471000D01*
X136543143Y-85398429D01*
X136688286Y-85398429D01*
X137776858Y-86341857D02*
X137631715Y-86414429D01*
X137341429Y-86414429D01*
X137196286Y-86341857D01*
X137123715Y-86196714D01*
X137123715Y-85616143D01*
X137196286Y-85471000D01*
X137341429Y-85398429D01*
X137631715Y-85398429D01*
X137776858Y-85471000D01*
X137849429Y-85616143D01*
X137849429Y-85761286D01*
X137123715Y-85906429D01*
X139083144Y-86341857D02*
X138938001Y-86414429D01*
X138647715Y-86414429D01*
X138502572Y-86341857D01*
X138430001Y-86196714D01*
X138430001Y-85616143D01*
X138502572Y-85471000D01*
X138647715Y-85398429D01*
X138938001Y-85398429D01*
X139083144Y-85471000D01*
X139155715Y-85616143D01*
X139155715Y-85761286D01*
X138430001Y-85906429D01*
X139808858Y-85398429D02*
X139808858Y-86414429D01*
X139808858Y-85543571D02*
X139881430Y-85471000D01*
X140026572Y-85398429D01*
X140244287Y-85398429D01*
X140389430Y-85471000D01*
X140462001Y-85616143D01*
X140462001Y-86414429D01*
D17*
X133039274Y-86486879D02*
X133668226Y-86486879D01*
X133329560Y-86873927D01*
X133474702Y-86873927D01*
X133571464Y-86922308D01*
X133619845Y-86970689D01*
X133668226Y-87067450D01*
X133668226Y-87309355D01*
X133619845Y-87406117D01*
X133571464Y-87454498D01*
X133474702Y-87502879D01*
X133184417Y-87502879D01*
X133087655Y-87454498D01*
X133039274Y-87406117D01*
X142367484Y-86825546D02*
X142367484Y-87502879D01*
X142125580Y-86438498D02*
X141883675Y-87164212D01*
X142512627Y-87164212D01*
D18*
X137001915Y-92103847D02*
X138664285Y-92103847D01*
X137833100Y-92935032D02*
X137833100Y-91272662D01*
X136951115Y-87303247D02*
X138613485Y-87303247D01*
D11*
X155556857Y-95231857D02*
X155774571Y-95304429D01*
X156137428Y-95304429D01*
X156282571Y-95231857D01*
X156355142Y-95159286D01*
X156427714Y-95014143D01*
X156427714Y-94869000D01*
X156355142Y-94723857D01*
X156282571Y-94651286D01*
X156137428Y-94578714D01*
X155847142Y-94506143D01*
X155702000Y-94433571D01*
X155629428Y-94361000D01*
X155556857Y-94215857D01*
X155556857Y-94070714D01*
X155629428Y-93925571D01*
X155702000Y-93853000D01*
X155847142Y-93780429D01*
X156210000Y-93780429D01*
X156427714Y-93853000D01*
X156935714Y-93780429D02*
X157879143Y-93780429D01*
X157371143Y-94361000D01*
X157588857Y-94361000D01*
X157734000Y-94433571D01*
X157806571Y-94506143D01*
X157879143Y-94651286D01*
X157879143Y-95014143D01*
X157806571Y-95159286D01*
X157734000Y-95231857D01*
X157588857Y-95304429D01*
X157153429Y-95304429D01*
X157008286Y-95231857D01*
X156935714Y-95159286D01*
X155266571Y-86414429D02*
X155266571Y-85398429D01*
X155266571Y-85688714D02*
X155339143Y-85543571D01*
X155411714Y-85471000D01*
X155556857Y-85398429D01*
X155702000Y-85398429D01*
X156790572Y-86341857D02*
X156645429Y-86414429D01*
X156355143Y-86414429D01*
X156210000Y-86341857D01*
X156137429Y-86196714D01*
X156137429Y-85616143D01*
X156210000Y-85471000D01*
X156355143Y-85398429D01*
X156645429Y-85398429D01*
X156790572Y-85471000D01*
X156863143Y-85616143D01*
X156863143Y-85761286D01*
X156137429Y-85906429D01*
X158169429Y-86414429D02*
X158169429Y-84890429D01*
X158169429Y-86341857D02*
X158024286Y-86414429D01*
X157734000Y-86414429D01*
X157588858Y-86341857D01*
X157516286Y-86269286D01*
X157443715Y-86124143D01*
X157443715Y-85688714D01*
X157516286Y-85543571D01*
X157588858Y-85471000D01*
X157734000Y-85398429D01*
X158024286Y-85398429D01*
X158169429Y-85471000D01*
D17*
X152089274Y-86486879D02*
X152718226Y-86486879D01*
X152379560Y-86873927D01*
X152524702Y-86873927D01*
X152621464Y-86922308D01*
X152669845Y-86970689D01*
X152718226Y-87067450D01*
X152718226Y-87309355D01*
X152669845Y-87406117D01*
X152621464Y-87454498D01*
X152524702Y-87502879D01*
X152234417Y-87502879D01*
X152137655Y-87454498D01*
X152089274Y-87406117D01*
X161417484Y-86825546D02*
X161417484Y-87502879D01*
X161175580Y-86438498D02*
X160933675Y-87164212D01*
X161562627Y-87164212D01*
D18*
X156051915Y-92103847D02*
X157714285Y-92103847D01*
X156883100Y-92935032D02*
X156883100Y-91272662D01*
X155886815Y-87150847D02*
X157549185Y-87150847D01*
D11*
X136506857Y-114281857D02*
X136724571Y-114354429D01*
X137087428Y-114354429D01*
X137232571Y-114281857D01*
X137305142Y-114209286D01*
X137377714Y-114064143D01*
X137377714Y-113919000D01*
X137305142Y-113773857D01*
X137232571Y-113701286D01*
X137087428Y-113628714D01*
X136797142Y-113556143D01*
X136652000Y-113483571D01*
X136579428Y-113411000D01*
X136506857Y-113265857D01*
X136506857Y-113120714D01*
X136579428Y-112975571D01*
X136652000Y-112903000D01*
X136797142Y-112830429D01*
X137160000Y-112830429D01*
X137377714Y-112903000D01*
X138684000Y-113338429D02*
X138684000Y-114354429D01*
X138321143Y-112757857D02*
X137958286Y-113846429D01*
X138901714Y-113846429D01*
X134366000Y-104448429D02*
X134728857Y-105464429D01*
X135091715Y-104448429D02*
X134728857Y-105464429D01*
X134583715Y-105827286D01*
X134511143Y-105899857D01*
X134366000Y-105972429D01*
X136252858Y-105391857D02*
X136107715Y-105464429D01*
X135817429Y-105464429D01*
X135672286Y-105391857D01*
X135599715Y-105246714D01*
X135599715Y-104666143D01*
X135672286Y-104521000D01*
X135817429Y-104448429D01*
X136107715Y-104448429D01*
X136252858Y-104521000D01*
X136325429Y-104666143D01*
X136325429Y-104811286D01*
X135599715Y-104956429D01*
X137196286Y-105464429D02*
X137051144Y-105391857D01*
X136978572Y-105246714D01*
X136978572Y-103940429D01*
X137994572Y-105464429D02*
X137849430Y-105391857D01*
X137776858Y-105246714D01*
X137776858Y-103940429D01*
X138792858Y-105464429D02*
X138647716Y-105391857D01*
X138575144Y-105319286D01*
X138502573Y-105174143D01*
X138502573Y-104738714D01*
X138575144Y-104593571D01*
X138647716Y-104521000D01*
X138792858Y-104448429D01*
X139010573Y-104448429D01*
X139155716Y-104521000D01*
X139228287Y-104593571D01*
X139300858Y-104738714D01*
X139300858Y-105174143D01*
X139228287Y-105319286D01*
X139155716Y-105391857D01*
X139010573Y-105464429D01*
X138792858Y-105464429D01*
X139808858Y-104448429D02*
X140099144Y-105464429D01*
X140389430Y-104738714D01*
X140679715Y-105464429D01*
X140970001Y-104448429D01*
D17*
X133039274Y-105536879D02*
X133668226Y-105536879D01*
X133329560Y-105923927D01*
X133474702Y-105923927D01*
X133571464Y-105972308D01*
X133619845Y-106020689D01*
X133668226Y-106117450D01*
X133668226Y-106359355D01*
X133619845Y-106456117D01*
X133571464Y-106504498D01*
X133474702Y-106552879D01*
X133184417Y-106552879D01*
X133087655Y-106504498D01*
X133039274Y-106456117D01*
X142367484Y-105875546D02*
X142367484Y-106552879D01*
X142125580Y-105488498D02*
X141883675Y-106214212D01*
X142512627Y-106214212D01*
D18*
X137001915Y-111153847D02*
X138664285Y-111153847D01*
X137833100Y-111985032D02*
X137833100Y-110322662D01*
X136951115Y-106353247D02*
X138613485Y-106353247D01*
D19*
X171899943Y-108338257D02*
X171928971Y-108251171D01*
X171928971Y-108106028D01*
X171899943Y-108047971D01*
X171870914Y-108018942D01*
X171812857Y-107989914D01*
X171754800Y-107989914D01*
X171696743Y-108018942D01*
X171667714Y-108047971D01*
X171638686Y-108106028D01*
X171609657Y-108222142D01*
X171580629Y-108280200D01*
X171551600Y-108309228D01*
X171493543Y-108338257D01*
X171435486Y-108338257D01*
X171377429Y-108309228D01*
X171348400Y-108280200D01*
X171319371Y-108222142D01*
X171319371Y-108077000D01*
X171348400Y-107989914D01*
X171348400Y-107409343D02*
X171319371Y-107467400D01*
X171319371Y-107554486D01*
X171348400Y-107641571D01*
X171406457Y-107699629D01*
X171464514Y-107728657D01*
X171580629Y-107757686D01*
X171667714Y-107757686D01*
X171783829Y-107728657D01*
X171841886Y-107699629D01*
X171899943Y-107641571D01*
X171928971Y-107554486D01*
X171928971Y-107496429D01*
X171899943Y-107409343D01*
X171870914Y-107380314D01*
X171667714Y-107380314D01*
X171667714Y-107496429D01*
X171928971Y-106799743D02*
X171928971Y-107148086D01*
X171928971Y-106973914D02*
X171319371Y-106973914D01*
X171406457Y-107031971D01*
X171464514Y-107090029D01*
X171493543Y-107148086D01*
X176994457Y-112924771D02*
X177023486Y-112837685D01*
X177052514Y-112808657D01*
X177110571Y-112779628D01*
X177197657Y-112779628D01*
X177255714Y-112808657D01*
X177284743Y-112837685D01*
X177313771Y-112895743D01*
X177313771Y-113127971D01*
X176704171Y-113127971D01*
X176704171Y-112924771D01*
X176733200Y-112866714D01*
X176762229Y-112837685D01*
X176820286Y-112808657D01*
X176878343Y-112808657D01*
X176936400Y-112837685D01*
X176965429Y-112866714D01*
X176994457Y-112924771D01*
X176994457Y-113127971D01*
X176704171Y-112518371D02*
X177197657Y-112518371D01*
X177255714Y-112489343D01*
X177284743Y-112460314D01*
X177313771Y-112402257D01*
X177313771Y-112286143D01*
X177284743Y-112228085D01*
X177255714Y-112199057D01*
X177197657Y-112170028D01*
X176704171Y-112170028D01*
X176704171Y-111937799D02*
X176704171Y-111531399D01*
X177313771Y-111937799D01*
X177313771Y-111531399D01*
X176704171Y-111357228D02*
X176704171Y-110950828D01*
X177313771Y-111357228D01*
X177313771Y-110950828D01*
X176994457Y-110718600D02*
X176994457Y-110515400D01*
X177313771Y-110428314D02*
X177313771Y-110718600D01*
X176704171Y-110718600D01*
X176704171Y-110428314D01*
X177313771Y-109818714D02*
X177023486Y-110021914D01*
X177313771Y-110167057D02*
X176704171Y-110167057D01*
X176704171Y-109934829D01*
X176733200Y-109876771D01*
X176762229Y-109847743D01*
X176820286Y-109818714D01*
X176907371Y-109818714D01*
X176965429Y-109847743D01*
X176994457Y-109876771D01*
X177023486Y-109934829D01*
X177023486Y-110167057D01*
X177313771Y-109557457D02*
X176704171Y-109557457D01*
X176704171Y-109325229D01*
X176733200Y-109267171D01*
X176762229Y-109238143D01*
X176820286Y-109209114D01*
X176907371Y-109209114D01*
X176965429Y-109238143D01*
X176994457Y-109267171D01*
X177023486Y-109325229D01*
X177023486Y-109557457D01*
X176704171Y-109034943D02*
X176704171Y-108686600D01*
X177313771Y-108860771D02*
X176704171Y-108860771D01*
X177313771Y-108483400D02*
X176704171Y-108483400D01*
X176994457Y-108483400D02*
X176994457Y-108135057D01*
X177313771Y-108135057D02*
X176704171Y-108135057D01*
X177081543Y-107844771D02*
X177081543Y-107380314D01*
X177313771Y-107090028D02*
X176704171Y-107090028D01*
X177313771Y-106741685D01*
X176704171Y-106741685D01*
X177284743Y-106480428D02*
X177313771Y-106393342D01*
X177313771Y-106248199D01*
X177284743Y-106190142D01*
X177255714Y-106161113D01*
X177197657Y-106132085D01*
X177139600Y-106132085D01*
X177081543Y-106161113D01*
X177052514Y-106190142D01*
X177023486Y-106248199D01*
X176994457Y-106364313D01*
X176965429Y-106422371D01*
X176936400Y-106451399D01*
X176878343Y-106480428D01*
X176820286Y-106480428D01*
X176762229Y-106451399D01*
X176733200Y-106422371D01*
X176704171Y-106364313D01*
X176704171Y-106219171D01*
X176733200Y-106132085D01*
X177081543Y-105870828D02*
X177081543Y-105406371D01*
X177313771Y-105116085D02*
X176704171Y-105116085D01*
X177313771Y-104767742D02*
X176965429Y-105028999D01*
X176704171Y-104767742D02*
X177052514Y-105116085D01*
X177313771Y-104506485D02*
X176704171Y-104506485D01*
X176704171Y-104303285D02*
X176704171Y-103954942D01*
X177313771Y-104129113D02*
X176704171Y-104129113D01*
D17*
X172593000Y-112818333D02*
X172593000Y-111463666D01*
X173270333Y-112140999D02*
X171915667Y-112140999D01*
M02*
