G04 #@! TF.FileFunction,Other,User*
%FSLAX46Y46*%
G04 Gerber Fmt 4.6, Leading zero omitted, Abs format (unit mm)*
G04 Created by KiCad (PCBNEW 4.0.1-4.201602120846+6195~38~ubuntu15.10.1-stable) date Mon 15 Feb 2016 03:11:55 PM IST*
%MOMM*%
G01*
G04 APERTURE LIST*
%ADD10C,0.100000*%
%ADD11C,0.150000*%
G04 APERTURE END LIST*
D10*
D11*
X176403000Y-116205000D02*
X178943000Y-116205000D01*
X176403000Y-121285000D02*
X176403000Y-116205000D01*
X176403000Y-93980000D02*
X176403000Y-85725000D01*
X174498000Y-93980000D02*
X176403000Y-93980000D01*
X127508000Y-78105000D02*
X121793000Y-78105000D01*
X127508000Y-73660000D02*
X127508000Y-78105000D01*
X128143000Y-73660000D02*
X127508000Y-73660000D01*
X120523000Y-81915000D02*
X120523000Y-121285000D01*
X121793000Y-80645000D02*
X120523000Y-81915000D01*
X121793000Y-78105000D02*
X121793000Y-80645000D01*
X175768000Y-73660000D02*
X128143000Y-73660000D01*
X176403000Y-74295000D02*
X175768000Y-73660000D01*
X176403000Y-85725000D02*
X176403000Y-74295000D01*
X172593000Y-93980000D02*
X174498000Y-93980000D01*
X172593000Y-102870000D02*
X172593000Y-93980000D01*
X178943000Y-102870000D02*
X172593000Y-102870000D01*
X178943000Y-116205000D02*
X178943000Y-102870000D01*
X176403000Y-125730000D02*
X176403000Y-121285000D01*
X127508000Y-125730000D02*
X176403000Y-125730000D01*
X127508000Y-121285000D02*
X127508000Y-125730000D01*
X120523000Y-121285000D02*
X127508000Y-121285000D01*
M02*
