G04 #@! TF.FileFunction,Copper,L2,Bot,Signal*
%FSLAX46Y46*%
G04 Gerber Fmt 4.6, Leading zero omitted, Abs format (unit mm)*
G04 Created by KiCad (PCBNEW 4.0.1-4.201602120846+6195~38~ubuntu15.10.1-stable) date Mon 15 Feb 2016 03:11:55 PM IST*
%MOMM*%
G01*
G04 APERTURE LIST*
%ADD10C,0.100000*%
%ADD11O,1.727200X2.032000*%
%ADD12C,4.064000*%
%ADD13C,1.879600*%
%ADD14C,2.159000*%
%ADD15C,1.676400*%
%ADD16C,1.407160*%
%ADD17C,0.600000*%
%ADD18C,0.250000*%
G04 APERTURE END LIST*
D10*
D11*
X138938000Y-123825000D03*
X141478000Y-123825000D03*
X144018000Y-123825000D03*
X146558000Y-123825000D03*
X149098000Y-123825000D03*
X151638000Y-123825000D03*
X154178000Y-123825000D03*
X156718000Y-123825000D03*
X161798000Y-123825000D03*
X164338000Y-123825000D03*
X166878000Y-123825000D03*
X169418000Y-123825000D03*
X171958000Y-123825000D03*
X174498000Y-123825000D03*
X129794000Y-75565000D03*
X132334000Y-75565000D03*
X134874000Y-75565000D03*
X137414000Y-75565000D03*
X139954000Y-75565000D03*
X142494000Y-75565000D03*
X145034000Y-75565000D03*
X147574000Y-75565000D03*
X150114000Y-75565000D03*
X152654000Y-75565000D03*
X156718000Y-75565000D03*
X159258000Y-75565000D03*
X161798000Y-75565000D03*
X164338000Y-75565000D03*
X166878000Y-75565000D03*
X169418000Y-75565000D03*
X171958000Y-75565000D03*
X174498000Y-75565000D03*
D12*
X124968000Y-123825000D03*
X177038000Y-118745000D03*
X126238000Y-75565000D03*
X177038000Y-90805000D03*
D13*
X166878000Y-94615000D03*
X166878000Y-84455000D03*
X127508000Y-94615000D03*
X127508000Y-84455000D03*
X171958000Y-80645000D03*
X171958000Y-90805000D03*
X127508000Y-113665000D03*
X127508000Y-103505000D03*
X166878000Y-113665000D03*
X166878000Y-103505000D03*
X122428000Y-84455000D03*
X122428000Y-94615000D03*
X122428000Y-113665000D03*
X122428000Y-103505000D03*
X132588000Y-118745000D03*
X142748000Y-118745000D03*
D14*
X150469600Y-111084360D03*
X162966400Y-111084360D03*
X150469600Y-106085640D03*
X162966400Y-106085640D03*
D15*
X156718000Y-115333780D03*
X156718000Y-101836220D03*
D14*
X131419600Y-92034360D03*
X143916400Y-92034360D03*
X131419600Y-87035640D03*
X143916400Y-87035640D03*
D15*
X137668000Y-96283780D03*
X137668000Y-82786220D03*
D14*
X150469600Y-92034360D03*
X162966400Y-92034360D03*
X150469600Y-87035640D03*
X162966400Y-87035640D03*
D15*
X156718000Y-96283780D03*
X156718000Y-82786220D03*
D14*
X131419600Y-111084360D03*
X143916400Y-111084360D03*
X131419600Y-106085640D03*
X143916400Y-106085640D03*
D15*
X137668000Y-115333780D03*
X137668000Y-101836220D03*
D16*
X174498000Y-111833660D03*
X174498000Y-105336340D03*
D17*
X141330500Y-90482200D03*
X133375900Y-109679500D03*
D18*
X149098000Y-118311800D02*
X149098000Y-123825000D01*
X142490100Y-111703900D02*
X149098000Y-118311800D01*
X142490100Y-107511900D02*
X142490100Y-111703900D01*
X143916400Y-106085600D02*
X142490100Y-107511900D01*
X142482100Y-88469900D02*
X143916400Y-87035600D01*
X142482100Y-104651300D02*
X142482100Y-88469900D01*
X143916400Y-106085600D02*
X142482100Y-104651300D01*
X137414000Y-82532200D02*
X137668000Y-82786200D01*
X137414000Y-75565000D02*
X137414000Y-82532200D01*
X137668000Y-113665000D02*
X137668000Y-101836200D01*
X142748000Y-118745000D02*
X137668000Y-113665000D01*
X154178000Y-104376200D02*
X156718000Y-101836200D01*
X154178000Y-123825000D02*
X154178000Y-104376200D01*
X141330500Y-84348500D02*
X141330500Y-90482200D01*
X148925100Y-76753900D02*
X141330500Y-84348500D01*
X148925100Y-75565000D02*
X148925100Y-76753900D01*
X150114000Y-75565000D02*
X148925100Y-75565000D01*
X152654000Y-75565000D02*
X153842900Y-75565000D01*
X168149600Y-93343400D02*
X166878000Y-94615000D01*
X168149600Y-80647700D02*
X168149600Y-93343400D01*
X165608000Y-78106100D02*
X168149600Y-80647700D01*
X165608000Y-74931900D02*
X165608000Y-78106100D01*
X164895600Y-74219500D02*
X165608000Y-74931900D01*
X155188400Y-74219500D02*
X164895600Y-74219500D01*
X153842900Y-75565000D02*
X155188400Y-74219500D01*
X161798000Y-84279700D02*
X161798000Y-75565000D01*
X145811700Y-100266000D02*
X161798000Y-84279700D01*
X145811700Y-109189100D02*
X145811700Y-100266000D01*
X143916400Y-111084400D02*
X145811700Y-109189100D01*
X164400100Y-76968400D02*
X164338000Y-76906300D01*
X164400100Y-90600700D02*
X164400100Y-76968400D01*
X162966400Y-92034400D02*
X164400100Y-90600700D01*
X164338000Y-75565000D02*
X164338000Y-76906300D01*
X165082100Y-73769100D02*
X166878000Y-75565000D01*
X152571300Y-73769100D02*
X165082100Y-73769100D01*
X151384000Y-74956400D02*
X152571300Y-73769100D01*
X151384000Y-81696400D02*
X151384000Y-74956400D01*
X143916400Y-89164000D02*
X151384000Y-81696400D01*
X143916400Y-92034400D02*
X143916400Y-89164000D01*
X163631900Y-110418900D02*
X166878000Y-113665000D01*
X162966400Y-111084400D02*
X163631900Y-110418900D01*
X169418000Y-104632800D02*
X169418000Y-75565000D01*
X163631900Y-110418900D02*
X169418000Y-104632800D01*
X133375900Y-103651300D02*
X133375900Y-109679500D01*
X139727400Y-97299800D02*
X133375900Y-103651300D01*
X139727400Y-80871600D02*
X139727400Y-97299800D01*
X143845100Y-76753900D02*
X139727400Y-80871600D01*
X143845100Y-75565000D02*
X143845100Y-76753900D01*
X145034000Y-75565000D02*
X143845100Y-75565000D01*
X164879300Y-107172500D02*
X156718000Y-115333800D01*
X164879300Y-86453700D02*
X164879300Y-107172500D01*
X166878000Y-84455000D02*
X164879300Y-86453700D01*
X127508000Y-86123800D02*
X127508000Y-84455000D01*
X137668000Y-96283800D02*
X127508000Y-86123800D01*
X127508000Y-105173800D02*
X127508000Y-103505000D01*
X137668000Y-115333800D02*
X127508000Y-105173800D01*
M02*
