M48
INCH,TZ
T1C0.016
T2C0.031
T3C0.035
T4C0.040
T5C0.047
T6C0.120
%
G90
G05
T1
X52510Y-43181
X55642Y-35623
T2
X54200Y-32593
X54200Y-37907
X54200Y-40093
X54200Y-45407
X61700Y-32593
X61700Y-37907
X61700Y-40093
X61700Y-45407
T3
X48200Y-33250
X48200Y-37250
X48200Y-40750
X48200Y-44750
X50200Y-33250
X50200Y-37250
X50200Y-40750
X50200Y-44750
X52200Y-46750
X56200Y-46750
X65700Y-33250
X65700Y-37250
X65700Y-40750
X65700Y-44750
X67700Y-31750
X67700Y-35750
X68700Y-41471
X68700Y-44029
T4
X51100Y-29750
X52100Y-29750
X53100Y-29750
X54100Y-29750
X54700Y-48750
X55100Y-29750
X55700Y-48750
X56100Y-29750
X56700Y-48750
X57100Y-29750
X57700Y-48750
X58100Y-29750
X58700Y-48750
X59100Y-29750
X59700Y-48750
X60100Y-29750
X60700Y-48750
X61700Y-29750
X61700Y-48750
X62700Y-29750
X63700Y-29750
X63700Y-48750
X64700Y-29750
X64700Y-48750
X65700Y-29750
X65700Y-48750
X66700Y-29750
X66700Y-48750
X67700Y-29750
X67700Y-48750
X68700Y-29750
X68700Y-48750
T5
X51740Y-34266
X51740Y-36234
X51740Y-41766
X51740Y-43734
X56660Y-34266
X56660Y-36234
X56660Y-41766
X56660Y-43734
X59240Y-34266
X59240Y-36234
X59240Y-41766
X59240Y-43734
X64160Y-34266
X64160Y-36234
X64160Y-41766
X64160Y-43734
T6
X49200Y-48750
X49700Y-29750
X69700Y-35750
X69700Y-46750
T0
M30
